<svg fill="none" height="14" viewBox="0 0 14 14" width="14" xmlns="http://www.w3.org/2000/svg" xmlns:xlink="http://www.w3.org/1999/xlink"><clipPath id="a"><path d="m0 0h14v14h-14z"/></clipPath><g clip-path="url(#a)" stroke="#000001" stroke-linecap="round" stroke-linejoin="round"><path d="m13 6.50001c.0006-1.02814-.263-2.03918-.7656-2.93612-.5025-.89695-1.2271-1.64972-2.1043-2.18609-.8771-.536367-1.87735-.838342-2.90477-.876954-1.02741-.038612-2.0475.187434-2.96243.656454-.91492.46902-1.69398 1.16527-2.26242 2.02197-.56845.8567-.90722 1.8451-.98381 2.87038-.076587 1.02528.11157 2.05304.54643 2.98469.43485.93165 1.10181 1.73596 1.9369 2.33566v1.13c0 .2652.10536.5196.29289.7071.18754.1876.44189.2929.70711.2929h5c.26522 0 .5196-.1053.7071-.2929.1875-.1875.2929-.4419.2929-.7071v-1.13c.7731-.5552 1.4031-1.2865 1.8378-2.13326.4347-.8468.6617-1.78487.6622-2.73673z"/><path d="m4.5 7.5c.27614 0 .5-.22386.5-.5s-.22386-.5-.5-.5-.5.22386-.5.5.22386.5.5.5z"/><path d="m9.5 7.5c.27614 0 .5-.22386.5-.5s-.22386-.5-.5-.5-.5.22386-.5.5.22386.5.5.5z"/><path d="m6 11.5v2"/><path d="m8 11.5v2"/></g></svg>