<svg fill="none" height="14" viewBox="0 0 14 14" width="14" xmlns="http://www.w3.org/2000/svg"><path d="m6.99999 3.18315c-3.01971-3.705147-6.208039-1.07248-6.24999 1.76547 0 4.22492 5.05507 7.69268 6.24999 7.69268s6.25001-3.46776 6.25001-7.69268c-.042-2.83795-3.2303-5.470617-6.25001-1.76547z" fill="#d7e0ff"/><g stroke="#4147d5" stroke-linecap="round" stroke-linejoin="round" stroke-width="1.5"><path d="m.880821 3.99988c.632079-2.40493 3.441889-4.101832 6.119169-.81686 3.01971-3.705139 6.20801-1.07248 6.25001 1.76548 0 4.22492-5.05509 7.6927-6.25001 7.6927-.71466 0-2.81006-1.2404-4.379-3.14132"/><path d="m9.5 6.5h-1.5l-1.5 2-2-3.5-1.5 2h-2.25"/></g></svg>